<svg xmlns="http://www.w3.org/2000/svg" viewBox="0 5 11 11">
    <path fill="#666" d="M 0 5 L 11 5 L 11 16 L 0 16 Z"/>
    <path fill="#333" d="M 1 16 L 2 13 L 4 12 L 4 10 L 5 7 L 6.4 6 L 7.5 6 L 9 7 L 10 10 L 10 12 L 11 12 L 11 16"/>
    <path fill="#222" d="M 4 11 L 5 9 L 9 9 L 10 10 L 10 12 L 11 12 L 11 16 L 1 16 L 2 13 L 4 12 Z"/>

    <path fill="#000" d="M 9 12 L 9.3 10.3 L 8 9 L 6 9 L 4.7 10.3 L 5 12 L 7 13 Z"/>
    <path fill="#d66" d="M 5.5 9.5 L 6.5 9.5 L 6.5 10 L 5.5 10 Z M 7.5 9.5 L 7.5 10 L 8.5 10 L 8.5 9.5 Z"/>
    <path fill="#2004" d="M 6.4 6 L 0 8 L 0 16 L 1 16 L 2 13 L 4 12 L 4 10 L 5 7 Z"/>
</svg>