<svg xmlns="http://www.w3.org/2000/svg" viewBox="-8 -9 18 18">
	<path fill="#f79" d="M -8 9 L 10 9 L 10 -9 L -8 -9 Z"/>
	<path fill="#fff" d="M -4 9 L -3 7 L -3 3 L -5 1 L -5 -6 L -2 -3 L 2 -3 L 5 -6 L 5 1 L 3 3 L 2 5 L 3 8 L 5 7 L 6 5 L 7 4 L 8 5 L 8 6 L 7 7 L 5 9 Z"/>
	<path fill="none" stroke="#503" stroke-width=".5" stroke-linecap="round" stroke-linejoin="round" d="M -1 1 Q -0.8 2.3 0 1 Q 0.8 2.3 1 1"/>
	<path fill="none" stroke="#000" stroke-width=".9" stroke-linecap="round" stroke-linejoin="round" d="M 1 0 L 2 -1 L 3 0 M -1 0 L -2 -1 L -3 0"/>
    <path fill="#0005" d="M 5 -6 L 10 -1 L 10 9 L 5 9 L 7 7 L 8 6 L 8 5 L 7 4 L 6 5 L 5 7 L 3 8 L 2 5 L 3 3 L 5 1 Z"/>
</svg>