<svg xmlns="http://www.w3.org/2000/svg" viewBox="0 0 15 15">
	<path fill="#fff" d="M 0 15 L 15 15 L 15 0 L 0 0 Z"/>

    <!-- OUTLINE -->
	<path fill="#111929" d="M 3 4 L 4 4 L 4 9 L 3 9 Z M 11 4 L 12 4 L 12 9 L 11 9 Z M 10 9 L 11 9 L 11 10 L 10 10 Z M 8 10 L 10 10 L 10 11 L 8 11 Z M 5 10 L 6 10 L 6 11 L 5 11 Z M 4 9 L 5 9 L 5 10 L 4 10 Z M 5 11 L 3 11 L 3 12 L 5 12 Z M 3 12 L 2 12 L 2 13 L 3 13 Z M 2 13 L 1 13 L 1 15 L 2 15 Z M 10 11 L 12 11 L 12 12 L 10 12 Z M 12 12 L 13 12 L 13 13 L 12 13 Z M 13 13 L 14 13 L 14 15 L 13 15 Z M 10 14 L 12 14 L 12 15 L 10 15 Z M 3 14 L 5 14 L 5 15 L 3 15 Z"/>

    <!-- HAIR -->
	<path fill="#000" d="M 4 3 L 4 5 L 5 5 L 5 4 L 6 4 L 6 5 L 9 5 L 9 4 L 8 4 L 8 3 L 9 3 L 9 4 L 11 4 L 11 3 L 10 3 L 10 2 L 5 2 L 5 3 Z"/>

    <!-- BODY -->
	<path fill="#e9a668" d="M 9 4 L 9 3 L 8 3 L 8 4 L 9 4 L 9 5 L 6 5 L 6 4 L 5 4 L 5 5 L 4 5 L 4 9 L 5 9 L 5 10 L 6 10 L 6 11 L 5 11 L 5 12 L 3 12 L 3 13 L 2 13 L 2 15 L 3 15 L 3 14 L 5 14 L 5 15 L 10 15 L 10 14 L 12 14 L 12 15 L 13 15 L 13 13 L 12 13 L 12 12 L 10 12 L 10 11 L 8 11 L 8 10 L 10 10 L 10 9 L 11 9 L 11 4 Z"/>

    <!-- SHIRT -->
	<path fill="#4ca33d" d="M 5 11 L 10 11 L 10 12 L 12 12 L 12 13 L 13 13 L 13 14 L 10 14 L 10 15 L 5 15 L 5 14 L 2 14 L 2 13 L 3 13 L 3 12 L 5 12 Z"/>

    <!-- SHADOW -->
    <path fill="#0001" d="M 6 4 L 6 9 L 7 9 L 7 11 L 6 11 L 6 10 L 5 10 L 5 9 L 4 9 L 4 5 L 5 5 L 5 4 Z"/>
    <path fill="#0002" d="M 4 5 L 5 5 L 5 9 L 6 9 L 6 10 L 5 10 L 5 9 L 4 9 Z"/>

    <!-- EYES -->
	<path fill="#fff" d="M 5 7 L 5 8 L 7 8 L 7 7 Z M 8 8 L 10 8 L 10 7 L 8 7 Z"/>
	<path fill="#000" d="M 6 7 L 6 8 L 7 8 L 7 7 Z M 8 7 L 8 8 L 9 8 L 9 7 Z"/>

    <!-- BROW -->
	<path fill="#0004" d="M 5 6 L 5 7 L 10 7 L 10 6 Z"/>
	<path fill="#0004" d="M 7 6 L 7 7 L 8 7 L 8 6 Z"/>
</svg>