<svg xmlns="http://www.w3.org/2000/svg" viewBox="-3 -3 173.3 24.02">
	<path stroke="#375" stroke-width="4" fill="none" d="M 14.697 0 Q 17.285 0 19.58 0.855 Q 21.153 1.441 23.163 2.405 A 76.88 76.88 0 0 1 25.098 3.369 A 64.987 64.987 0 0 0 26.857 4.267 Q 27.688 4.674 28.418 4.996 A 28.053 28.053 0 0 0 29.492 5.445 A 10.266 10.266 0 0 0 31.815 6.065 A 8.934 8.934 0 0 0 33.057 6.153 A 7.944 7.944 0 0 0 34.963 5.932 A 6.577 6.577 0 0 0 36.45 5.371 A 9.212 9.212 0 0 0 37.767 4.52 Q 38.382 4.048 39.009 3.433 A 17.615 17.615 0 0 0 39.502 2.93 A 3.386 3.386 0 0 1 40.159 2.383 A 2.401 2.401 0 0 1 41.455 2.002 A 3.528 3.528 0 0 1 42.746 2.267 Q 43.764 2.667 44.912 3.67 A 13.038 13.038 0 0 1 45.068 3.809 A 10.674 10.674 0 0 1 46.112 4.843 Q 47.216 6.115 47.346 7.303 A 2.9 2.9 0 0 1 47.363 7.617 Q 47.363 8.26 46.983 9.02 A 5.781 5.781 0 0 1 46.729 9.473 A 27.557 27.557 0 0 1 44.207 12.683 Q 42.416 14.627 40.454 15.869 Q 37.061 18.018 32.666 18.018 Q 30.029 18.018 27.661 17.139 A 33.613 33.613 0 0 1 25.779 16.37 Q 24.743 15.912 23.591 15.335 A 67.354 67.354 0 0 1 22.168 14.6 Q 20.396 13.681 19.022 13.071 A 29.125 29.125 0 0 0 17.773 12.549 A 10.044 10.044 0 0 0 15.501 11.948 A 8.745 8.745 0 0 0 14.307 11.865 A 7.944 7.944 0 0 0 12.4 12.086 A 6.577 6.577 0 0 0 10.913 12.647 A 9.212 9.212 0 0 0 9.596 13.499 Q 8.981 13.97 8.354 14.585 A 17.615 17.615 0 0 0 7.861 15.088 A 3.386 3.386 0 0 1 7.204 15.635 A 2.401 2.401 0 0 1 5.908 16.016 A 3.528 3.528 0 0 1 4.617 15.751 Q 3.599 15.351 2.451 14.348 A 13.038 13.038 0 0 1 2.295 14.209 A 10.674 10.674 0 0 1 1.251 13.175 Q 0.147 11.903 0.017 10.715 A 2.9 2.9 0 0 1 0 10.401 Q 0 9.758 0.38 8.998 A 5.781 5.781 0 0 1 0.635 8.545 A 27.557 27.557 0 0 1 3.157 5.335 Q 4.947 3.391 6.909 2.149 Q 10.303 0 14.697 0 Z M 74.658 0 Q 77.246 0 79.541 0.855 Q 81.114 1.441 83.124 2.405 A 76.88 76.88 0 0 1 85.059 3.369 A 64.987 64.987 0 0 0 86.818 4.267 Q 87.649 4.674 88.379 4.996 A 28.053 28.053 0 0 0 89.453 5.445 A 10.266 10.266 0 0 0 91.776 6.065 A 8.934 8.934 0 0 0 93.018 6.153 A 7.944 7.944 0 0 0 94.924 5.932 A 6.577 6.577 0 0 0 96.411 5.371 A 9.212 9.212 0 0 0 97.728 4.52 Q 98.343 4.048 98.97 3.433 A 17.615 17.615 0 0 0 99.463 2.93 A 3.386 3.386 0 0 1 100.12 2.383 A 2.401 2.401 0 0 1 101.416 2.002 A 3.528 3.528 0 0 1 102.707 2.267 Q 103.725 2.667 104.873 3.67 A 13.038 13.038 0 0 1 105.029 3.809 A 10.674 10.674 0 0 1 106.073 4.843 Q 107.177 6.115 107.307 7.303 A 2.9 2.9 0 0 1 107.324 7.617 Q 107.324 8.26 106.944 9.02 A 5.781 5.781 0 0 1 106.689 9.473 A 27.557 27.557 0 0 1 104.167 12.683 Q 102.377 14.627 100.415 15.869 Q 97.021 18.018 92.627 18.018 Q 89.99 18.018 87.622 17.139 A 33.613 33.613 0 0 1 85.74 16.37 Q 84.704 15.912 83.552 15.335 A 67.354 67.354 0 0 1 82.129 14.6 Q 80.357 13.681 78.983 13.071 A 29.125 29.125 0 0 0 77.734 12.549 A 10.044 10.044 0 0 0 75.462 11.948 A 8.745 8.745 0 0 0 74.268 11.865 A 7.944 7.944 0 0 0 72.361 12.086 A 6.577 6.577 0 0 0 70.874 12.647 A 9.212 9.212 0 0 0 69.557 13.499 Q 68.942 13.97 68.315 14.585 A 17.615 17.615 0 0 0 67.822 15.088 A 3.386 3.386 0 0 1 67.165 15.635 A 2.401 2.401 0 0 1 65.869 16.016 A 3.528 3.528 0 0 1 64.578 15.751 Q 63.56 15.351 62.412 14.348 A 13.038 13.038 0 0 1 62.256 14.209 A 10.674 10.674 0 0 1 61.212 13.175 Q 60.108 11.903 59.978 10.715 A 2.9 2.9 0 0 1 59.961 10.401 Q 59.961 9.758 60.341 8.998 A 5.781 5.781 0 0 1 60.596 8.545 A 27.557 27.557 0 0 1 63.118 5.335 Q 64.908 3.391 66.87 2.149 Q 70.264 0 74.658 0 Z M 134.619 0 Q 137.207 0 139.502 0.855 Q 141.075 1.441 143.085 2.405 A 76.88 76.88 0 0 1 145.02 3.369 A 64.987 64.987 0 0 0 146.779 4.267 Q 147.61 4.674 148.34 4.996 A 28.053 28.053 0 0 0 149.414 5.445 A 10.266 10.266 0 0 0 151.737 6.065 A 8.934 8.934 0 0 0 152.979 6.153 A 7.944 7.944 0 0 0 154.885 5.932 A 6.577 6.577 0 0 0 156.372 5.371 A 9.212 9.212 0 0 0 157.689 4.52 Q 158.304 4.048 158.931 3.433 A 17.615 17.615 0 0 0 159.424 2.93 A 3.386 3.386 0 0 1 160.081 2.383 A 2.401 2.401 0 0 1 161.377 2.002 A 3.528 3.528 0 0 1 162.668 2.267 Q 163.686 2.667 164.834 3.67 A 13.038 13.038 0 0 1 164.99 3.809 A 10.674 10.674 0 0 1 166.034 4.843 Q 167.138 6.115 167.268 7.303 A 2.9 2.9 0 0 1 167.285 7.617 Q 167.285 8.26 166.905 9.02 A 5.781 5.781 0 0 1 166.65 9.473 A 27.557 27.557 0 0 1 164.128 12.683 Q 162.338 14.627 160.376 15.869 Q 156.982 18.018 152.588 18.018 Q 149.951 18.018 147.583 17.139 A 33.613 33.613 0 0 1 145.7 16.37 Q 144.665 15.912 143.513 15.335 A 67.354 67.354 0 0 1 142.09 14.6 Q 140.318 13.681 138.944 13.071 A 29.125 29.125 0 0 0 137.695 12.549 A 10.044 10.044 0 0 0 135.423 11.948 A 8.745 8.745 0 0 0 134.229 11.865 A 7.944 7.944 0 0 0 132.322 12.086 A 6.577 6.577 0 0 0 130.835 12.647 A 9.212 9.212 0 0 0 129.518 13.499 Q 128.903 13.97 128.276 14.585 A 17.615 17.615 0 0 0 127.783 15.088 A 3.386 3.386 0 0 1 127.126 15.635 A 2.401 2.401 0 0 1 125.83 16.016 A 3.528 3.528 0 0 1 124.539 15.751 Q 123.521 15.351 122.373 14.348 A 13.038 13.038 0 0 1 122.217 14.209 A 10.674 10.674 0 0 1 121.173 13.175 Q 120.069 11.903 119.939 10.715 A 2.9 2.9 0 0 1 119.922 10.401 Q 119.922 9.758 120.302 8.998 A 5.781 5.781 0 0 1 120.557 8.545 A 27.557 27.557 0 0 1 123.079 5.335 Q 124.869 3.391 126.831 2.149 Q 130.225 0 134.619 0 Z"/>
</svg>