<svg xmlns="http://www.w3.org/2000/svg" viewBox="-3 -3.00022 167.4 46.14">
	<path stroke="#375" stroke-width="4" fill="none" stroke-linejoin="round" d="M 26.416 6.836 L 24.121 16.797 L 32.861 11.524 A 6.547 6.547 0 0 1 34.574 10.755 A 5.598 5.598 0 0 1 36.084 10.547 A 4.687 4.687 0 0 1 39.087 11.621 A 5.482 5.482 0 0 1 40.343 13.077 Q 40.734 13.722 41.022 14.527 A 9.984 9.984 0 0 1 41.113 14.795 A 11.349 11.349 0 0 1 41.351 15.736 Q 41.447 16.201 41.482 16.614 A 5.526 5.526 0 0 1 41.504 17.09 A 5.555 5.555 0 0 1 41.27 18.738 A 4.454 4.454 0 0 1 40.088 20.655 A 5.647 5.647 0 0 1 37.662 22.022 A 7.67 7.67 0 0 1 36.377 22.266 L 26.221 23.194 L 33.936 29.883 Q 34.961 30.811 35.522 31.909 A 5.141 5.141 0 0 1 35.998 33.257 A 4.51 4.51 0 0 1 36.084 34.131 A 5.026 5.026 0 0 1 34.9 37.353 Q 34.338 38.05 33.511 38.685 A 10.437 10.437 0 0 1 33.398 38.77 Q 31.543 40.137 29.639 40.137 A 4.71 4.71 0 0 1 26.782 39.185 Q 25.488 38.233 24.805 36.572 L 20.752 27.149 L 16.699 36.572 Q 16.016 38.233 14.722 39.185 A 4.71 4.71 0 0 1 11.865 40.137 A 5.664 5.664 0 0 1 9.445 39.576 A 7.924 7.924 0 0 1 8.105 38.77 A 8.362 8.362 0 0 1 6.696 37.465 Q 5.42 35.949 5.42 34.131 A 4.697 4.697 0 0 1 5.791 32.322 A 5.66 5.66 0 0 1 5.981 31.909 A 6.751 6.751 0 0 1 7.028 30.418 A 8.164 8.164 0 0 1 7.568 29.883 L 15.283 23.194 L 5.127 22.266 A 7.279 7.279 0 0 1 3.347 21.86 A 5.525 5.525 0 0 1 1.416 20.655 A 4.571 4.571 0 0 1 0.035 17.756 A 6.261 6.261 0 0 1 0 17.09 A 6.052 6.052 0 0 1 0.064 16.24 Q 0.123 15.826 0.236 15.365 A 12.236 12.236 0 0 1 0.391 14.795 A 8.532 8.532 0 0 1 0.996 13.365 Q 1.449 12.529 2.059 11.937 A 4.972 4.972 0 0 1 2.417 11.621 A 4.687 4.687 0 0 1 5.42 10.547 Q 7.08 10.547 8.643 11.524 L 17.383 16.797 L 15.088 6.836 A 5.862 5.862 0 0 1 14.902 5.632 A 6.795 6.795 0 0 1 14.893 5.274 Q 14.893 2.979 16.431 1.489 A 5.03 5.03 0 0 1 18.625 0.265 Q 19.578 0 20.752 0 A 8.358 8.358 0 0 1 22.481 0.168 Q 23.561 0.397 24.381 0.936 A 4.711 4.711 0 0 1 25.073 1.489 A 4.985 4.985 0 0 1 26.605 4.99 A 6.63 6.63 0 0 1 26.611 5.274 A 6.282 6.282 0 0 1 26.51 6.416 A 5.52 5.52 0 0 1 26.416 6.836 Z M 86.377 6.836 L 84.082 16.797 L 92.822 11.524 A 6.547 6.547 0 0 1 94.535 10.755 A 5.598 5.598 0 0 1 96.045 10.547 A 4.687 4.687 0 0 1 99.048 11.621 A 5.482 5.482 0 0 1 100.304 13.077 Q 100.695 13.722 100.983 14.527 A 9.984 9.984 0 0 1 101.074 14.795 A 11.349 11.349 0 0 1 101.312 15.736 Q 101.408 16.201 101.443 16.614 A 5.526 5.526 0 0 1 101.465 17.09 A 5.555 5.555 0 0 1 101.231 18.738 A 4.454 4.454 0 0 1 100.049 20.655 A 5.647 5.647 0 0 1 97.623 22.022 A 7.67 7.67 0 0 1 96.338 22.266 L 86.182 23.194 L 93.896 29.883 Q 94.922 30.811 95.483 31.909 A 5.141 5.141 0 0 1 95.959 33.257 A 4.51 4.51 0 0 1 96.045 34.131 A 5.026 5.026 0 0 1 94.861 37.353 Q 94.299 38.05 93.472 38.685 A 10.437 10.437 0 0 1 93.359 38.77 Q 91.504 40.137 89.6 40.137 A 4.71 4.71 0 0 1 86.743 39.185 Q 85.449 38.233 84.766 36.572 L 80.713 27.149 L 76.66 36.572 Q 75.977 38.233 74.683 39.185 A 4.71 4.71 0 0 1 71.826 40.137 A 5.664 5.664 0 0 1 69.406 39.576 A 7.924 7.924 0 0 1 68.066 38.77 A 8.362 8.362 0 0 1 66.657 37.465 Q 65.381 35.949 65.381 34.131 A 4.697 4.697 0 0 1 65.752 32.322 A 5.66 5.66 0 0 1 65.942 31.909 A 6.751 6.751 0 0 1 66.989 30.418 A 8.164 8.164 0 0 1 67.529 29.883 L 75.244 23.194 L 65.088 22.266 A 7.279 7.279 0 0 1 63.308 21.86 A 5.525 5.525 0 0 1 61.377 20.655 A 4.571 4.571 0 0 1 59.996 17.756 A 6.261 6.261 0 0 1 59.961 17.09 A 6.052 6.052 0 0 1 60.025 16.24 Q 60.084 15.826 60.197 15.365 A 12.236 12.236 0 0 1 60.352 14.795 A 8.532 8.532 0 0 1 60.957 13.365 Q 61.41 12.529 62.02 11.937 A 4.972 4.972 0 0 1 62.378 11.621 A 4.687 4.687 0 0 1 65.381 10.547 Q 67.041 10.547 68.604 11.524 L 77.344 16.797 L 75.049 6.836 A 5.862 5.862 0 0 1 74.863 5.632 A 6.795 6.795 0 0 1 74.854 5.274 Q 74.854 2.979 76.392 1.489 A 5.03 5.03 0 0 1 78.586 0.265 Q 79.539 0 80.713 0 A 8.358 8.358 0 0 1 82.442 0.168 Q 83.522 0.397 84.342 0.936 A 4.711 4.711 0 0 1 85.034 1.489 A 4.985 4.985 0 0 1 86.566 4.99 A 6.63 6.63 0 0 1 86.572 5.274 A 6.282 6.282 0 0 1 86.471 6.416 A 5.52 5.52 0 0 1 86.377 6.836 Z M 146.338 6.836 L 144.043 16.797 L 152.783 11.524 A 6.547 6.547 0 0 1 154.496 10.755 A 5.598 5.598 0 0 1 156.006 10.547 A 4.687 4.687 0 0 1 159.009 11.621 A 5.482 5.482 0 0 1 160.265 13.077 Q 160.656 13.722 160.944 14.527 A 9.984 9.984 0 0 1 161.035 14.795 A 11.349 11.349 0 0 1 161.273 15.736 Q 161.369 16.201 161.404 16.614 A 5.526 5.526 0 0 1 161.426 17.09 A 5.555 5.555 0 0 1 161.192 18.738 A 4.454 4.454 0 0 1 160.01 20.655 A 5.647 5.647 0 0 1 157.584 22.022 A 7.67 7.67 0 0 1 156.299 22.266 L 146.143 23.194 L 153.857 29.883 Q 154.883 30.811 155.444 31.909 A 5.141 5.141 0 0 1 155.92 33.257 A 4.51 4.51 0 0 1 156.006 34.131 A 5.026 5.026 0 0 1 154.822 37.353 Q 154.26 38.05 153.433 38.685 A 10.437 10.437 0 0 1 153.32 38.77 Q 151.465 40.137 149.561 40.137 A 4.71 4.71 0 0 1 146.704 39.185 Q 145.41 38.233 144.727 36.572 L 140.674 27.149 L 136.621 36.572 Q 135.938 38.233 134.644 39.185 A 4.71 4.71 0 0 1 131.787 40.137 A 5.664 5.664 0 0 1 129.367 39.576 A 7.924 7.924 0 0 1 128.027 38.77 A 8.362 8.362 0 0 1 126.618 37.465 Q 125.342 35.949 125.342 34.131 A 4.697 4.697 0 0 1 125.712 32.322 A 5.66 5.66 0 0 1 125.903 31.909 A 6.751 6.751 0 0 1 126.95 30.418 A 8.164 8.164 0 0 1 127.49 29.883 L 135.205 23.194 L 125.049 22.266 A 7.279 7.279 0 0 1 123.269 21.86 A 5.525 5.525 0 0 1 121.338 20.655 A 4.571 4.571 0 0 1 119.956 17.756 A 6.261 6.261 0 0 1 119.922 17.09 A 6.052 6.052 0 0 1 119.986 16.24 Q 120.045 15.826 120.158 15.365 A 12.236 12.236 0 0 1 120.313 14.795 A 8.532 8.532 0 0 1 120.918 13.365 Q 121.371 12.529 121.981 11.937 A 4.972 4.972 0 0 1 122.339 11.621 A 4.687 4.687 0 0 1 125.342 10.547 Q 127.002 10.547 128.564 11.524 L 137.305 16.797 L 135.01 6.836 A 5.862 5.862 0 0 1 134.824 5.632 A 6.795 6.795 0 0 1 134.814 5.274 Q 134.814 2.979 136.353 1.489 A 5.03 5.03 0 0 1 138.547 0.265 Q 139.5 0 140.674 0 A 8.358 8.358 0 0 1 142.403 0.168 Q 143.483 0.397 144.303 0.936 A 4.711 4.711 0 0 1 144.995 1.489 A 4.985 4.985 0 0 1 146.527 4.99 A 6.63 6.63 0 0 1 146.533 5.274 A 6.282 6.282 0 0 1 146.432 6.416 A 5.52 5.52 0 0 1 146.338 6.836 Z"/>
</svg>